<svg xmlns="http://www.w3.org/2000/svg"  viewBox="0 0 512 512" width="128px" height="128px"><g data-name="&lt;Group&gt;"><path fill="#00efd1" d="M446.88,262.11l-.27,10.72-1.7-.04H377.52l-2.36.06-.35-13.89h-.09V279.1a14.751,14.751,0,0,1-14.31,14.88,14.478,14.478,0,0,1-14.64-14.48V198.83a27.262,27.262,0,0,1,27.13-30.01h14.67l23.25,22.62,24.1-22.62h13.81a27.262,27.262,0,0,1,27.13,30.01v80.66a14.49,14.49,0,0,1-28.98,0V262.11Z"/><path fill="#00acea" d="M410.89,443.59a15.7,15.7,0,0,1-31.38.57l-4.35-171.31,2.36-.06h67.39l1.7.04-4.35,171.33a15.69,15.69,0,0,1-31.37-.57Z"/><path fill="#00efd1" d="M436.14,107.3v10.99a26,26,0,0,1-26,26h-.49a26,26,0,0,1-26-26V107.3a26,26,0,0,1,26-26h.49A26,26,0,0,1,436.14,107.3Z"/><path fill="#fedb41" d="M359.65,78.72V89.7a26,26,0,0,1-26,26h-.49a26,26,0,0,1-26-26V78.72a26,26,0,0,1,26-26h.49A26,26,0,0,1,359.65,78.72Z"/><path fill="#00acea" d="M292.06,262.51l-.26,10.32-1.71-.04H222.71l-2.37.06-.35-13.89h-.08V279.1a14.751,14.751,0,0,1-14.31,14.88,14.478,14.478,0,0,1-14.64-14.48V198.83a27.262,27.262,0,0,1,27.13-30.01h14.66L256,191.44l24.1-22.62h13.82a27.26,27.26,0,0,1,27.12,30.01v80.66a14.49,14.49,0,0,1-28.98,0Z"/><path fill="#00efd1" d="M256.07,443.59a15.69,15.69,0,0,1-31.37.57l-4.36-171.31,2.37-.06h67.38l1.71.04-4.35,171.33a15.7,15.7,0,0,1-31.38-.57Z"/><path fill="#00efd1" d="M281.33,107.3v10.99a26,26,0,0,1-26,26h-.49a26,26,0,0,1-26-26V107.3a26,26,0,0,1,26-26h.49A26,26,0,0,1,281.33,107.3Z"/><path fill="#fedb41" d="M204.84,78.72V89.7a26,26,0,0,1-26,26h-.49a26,26,0,0,1-26-26V78.72a26,26,0,0,1,26-26h.49A26,26,0,0,1,204.84,78.72Z"/><path fill="#00efd1" d="M65.09,258.96V279.1a14.751,14.751,0,0,1-14.31,14.88A14.478,14.478,0,0,1,36.14,279.5V198.83a27.262,27.262,0,0,1,27.13-30.01H77.94l23.25,22.62,24.1-22.62H139.1a27.262,27.262,0,0,1,27.13,30.01v80.66a14.49,14.49,0,0,1-28.98,0V262.5l-.26,10.33-1.71-.04H67.89l-2.36.06-.35-13.89Z"/><path fill="#00acea" d="M101.26,443.59a15.7,15.7,0,0,1-31.38.57L65.53,272.85l2.36-.06h67.39l1.71.04-4.36,171.33a15.69,15.69,0,0,1-31.37-.57Z"/><path fill="#00efd1" d="M126.51,107.3v10.99a26,26,0,0,1-26,26h-.49a26,26,0,0,1-26-26V107.3a26,26,0,0,1,26-26h.49A26,26,0,0,1,126.51,107.3Z"/><path fill="#083863" d="M100.02,151.29h.49a33.038,33.038,0,0,0,33-33V107.3a33.038,33.038,0,0,0-33-33h-.49a33.038,33.038,0,0,0-33,33v10.99A33.038,33.038,0,0,0,100.02,151.29Zm-19-43.99a19.021,19.021,0,0,1,19-19h.49a19.021,19.021,0,0,1,19,19v10.99a19.021,19.021,0,0,1-19,19h-.49a19.021,19.021,0,0,1-19-19Z"/><path fill="#083863" d="M139.1,161.82H125.29a7,7,0,0,0-4.791,1.9l-19.223,18.042L82.82,163.8a7,7,0,0,0-4.881-1.983H63.27a34.261,34.261,0,0,0-34.13,37.344V279.5a21.477,21.477,0,0,0,21.507,21.481h.22a20.936,20.936,0,0,0,8.331-1.844l3.687,145.29a22.677,22.677,0,0,0,38.368,15.534,22.679,22.679,0,0,0,38.374-15.621l3.689-145.08a21.487,21.487,0,0,0,29.913-19.769V199.164A34.263,34.263,0,0,0,139.1,161.82ZM116.95,452.28a8.67,8.67,0,0,1-8.69-8.69V298.07a7,7,0,0,0-14,0V443.59a8.694,8.694,0,0,1-14.74,6.243,8.587,8.587,0,0,1-2.643-5.85L72.711,279.79h57.1l-4.174,164.122A8.651,8.651,0,0,1,116.95,452.28Zm42.316-254.156a6.944,6.944,0,0,0-.036.707v80.66a7.49,7.49,0,0,1-14.98,0V262.575l.087-3.437a7.054,7.054,0,0,0-.087-1.265V225.5a7,7,0,0,0-14,0v36.911l-.086,3.379H72.355l-.178-7.006a7.108,7.108,0,0,0-.088-.907V225.5a7,7,0,0,0-14,0v53.6a7.721,7.721,0,0,1-7.379,7.88,7.57,7.57,0,0,1-5.381-2.19A7.432,7.432,0,0,1,43.14,279.5v-80.67a6.959,6.959,0,0,0-.036-.707,20.262,20.262,0,0,1,20.165-22.3H75.1l21.212,20.637c.031.03.066.052.1.082a7.052,7.052,0,0,0,.655.549c.021.015.04.033.061.048a6.79,6.79,0,0,0,.79.483c.057.03.115.058.172.087a7.066,7.066,0,0,0,.773.33l.08.031a6.966,6.966,0,0,0,.873.23c.067.014.135.024.2.036a7.194,7.194,0,0,0,.8.092c.038,0,.075.007.112.009a7.07,7.07,0,0,0,.9-.028c.068-.006.135-.015.2-.023a6.948,6.948,0,0,0,.879-.157l.025,0a6.959,6.959,0,0,0,.907-.306c.025-.01.052-.015.077-.026s.052-.029.079-.041a6.936,6.936,0,0,0,1.592-.968c.065-.053.128-.107.191-.162s.139-.112.2-.174l22.08-20.724H139.1a20.262,20.262,0,0,1,20.165,22.305Z"/><path fill="#083863" d="M409.65,151.29h.49a33.038,33.038,0,0,0,33-33V107.3a33.038,33.038,0,0,0-33-33h-.49a33.038,33.038,0,0,0-33,33v10.99A33.038,33.038,0,0,0,409.65,151.29Zm-19-43.99a19.021,19.021,0,0,1,19-19h.49a19.021,19.021,0,0,1,19,19v10.99a19.021,19.021,0,0,1-19,19h-.49a19.021,19.021,0,0,1-19-19Z"/><path fill="#083863" d="M448.73,161.82H434.92a7,7,0,0,0-4.791,1.9l-19.223,18.042L392.45,163.8a7,7,0,0,0-4.881-1.983H372.9a34.263,34.263,0,0,0-34.13,37.344V279.5a21.477,21.477,0,0,0,21.508,21.481h.22a20.943,20.943,0,0,0,8.33-1.843l3.687,145.274a22.678,22.678,0,0,0,38.37,15.551,22.679,22.679,0,0,0,38.373-15.623l3.682-145.083a21.486,21.486,0,0,0,29.921-19.765V199.165A34.264,34.264,0,0,0,448.73,161.82ZM426.58,452.28a8.672,8.672,0,0,1-8.69-8.69V298.07a7,7,0,0,0-14,0V443.59a8.694,8.694,0,0,1-14.731,6.252,8.591,8.591,0,0,1-2.652-5.859L382.34,279.791h57.088l-4.165,164.122A8.65,8.65,0,0,1,426.58,452.28ZM468.9,198.123a6.959,6.959,0,0,0-.036.707v80.66a7.49,7.49,0,0,1-14.98,0V262.2l.078-3.059a6.964,6.964,0,0,0-.078-1.188V225.5a7,7,0,0,0-14,0v36.534l-.095,3.756h-57.8l-.178-7.006a7.184,7.184,0,0,0-.087-.9V225.5a7,7,0,0,0-14,0v53.6a7.721,7.721,0,0,1-7.379,7.88,7.476,7.476,0,0,1-7.571-7.48V198.83a6.959,6.959,0,0,0-.036-.707,20.264,20.264,0,0,1,20.166-22.3h11.827l21.212,20.637c.031.03.066.052.1.082a6.934,6.934,0,0,0,.657.55c.02.015.039.032.059.046a6.938,6.938,0,0,0,.79.484c.057.03.114.058.171.086a7.081,7.081,0,0,0,.774.33c.027.009.052.021.079.03a7.2,7.2,0,0,0,.873.231c.067.014.135.024.2.036a6.97,6.97,0,0,0,.8.091c.038,0,.075.008.113.009a7.07,7.07,0,0,0,.9-.028c.068-.006.135-.015.2-.023a6.762,6.762,0,0,0,.88-.158l.024,0a6.909,6.909,0,0,0,.907-.306c.025-.01.052-.015.077-.026s.052-.029.079-.041a6.936,6.936,0,0,0,1.592-.968c.065-.053.128-.107.191-.162s.139-.112.2-.174l22.08-20.724h11.04A20.263,20.263,0,0,1,468.9,198.123Z"/><path fill="#083863" d="M254.84,151.29h.49a33.038,33.038,0,0,0,33-33V107.3a33.038,33.038,0,0,0-33-33h-.49a33.038,33.038,0,0,0-33,33v10.99A33.038,33.038,0,0,0,254.84,151.29Zm-19-43.99a19.021,19.021,0,0,1,19-19h.49a19.021,19.021,0,0,1,19,19v10.99a19.021,19.021,0,0,1-19,19h-.49a19.021,19.021,0,0,1-19-19V107.3Z"/><path fill="#083863" d="M293.92,161.82H280.1a7,7,0,0,0-4.791,1.9l-19.223,18.042L237.63,163.8a7,7,0,0,0-4.881-1.983h-14.66a34.263,34.263,0,0,0-34.13,37.344V279.5a21.479,21.479,0,0,0,21.507,21.481h.221a20.932,20.932,0,0,0,8.323-1.84L217.7,444.409a22.672,22.672,0,0,0,38.366,15.548,22.679,22.679,0,0,0,38.378-15.619l3.682-145.083a21.478,21.478,0,0,0,29.911-19.765V199.164A34.26,34.26,0,0,0,293.92,161.82ZM271.76,452.28a8.689,8.689,0,0,1-8.69-8.69V298.07a7,7,0,0,0-14,0V443.59a8.694,8.694,0,0,1-14.731,6.252,8.587,8.587,0,0,1-2.642-5.859l-4.176-164.192h57.1L280.454,443.9A8.668,8.668,0,0,1,271.76,452.28Zm42.316-254.156a6.944,6.944,0,0,0-.036.707v80.66a7.49,7.49,0,0,1-14.98,0V262.582l.087-3.444a7.036,7.036,0,0,0-.087-1.264V225.5a7,7,0,1,0-14,0v36.92l-.085,3.37H227.166l-.178-7.006a6.976,6.976,0,0,0-.078-.848V225.5a7,7,0,0,0-14,0v53.6a7.721,7.721,0,0,1-7.379,7.88,7.558,7.558,0,0,1-5.381-2.19,7.433,7.433,0,0,1-2.19-5.291v-80.67a6.959,6.959,0,0,0-.036-.707,20.264,20.264,0,0,1,20.166-22.3h11.817l21.212,20.637c.031.03.066.052.1.082a7.132,7.132,0,0,0,.66.553c.019.014.036.03.055.044a7.14,7.14,0,0,0,.793.486c.055.029.111.056.167.084a6.772,6.772,0,0,0,.782.333c.025.009.048.02.073.028a7.046,7.046,0,0,0,.875.231c.067.013.134.024.2.036a7.229,7.229,0,0,0,.8.092c.037,0,.074.007.111.009a7.07,7.07,0,0,0,.9-.028c.068-.006.135-.015.2-.023a6.933,6.933,0,0,0,.878-.157.2.2,0,0,0,.026-.006,6.9,6.9,0,0,0,.906-.306c.025-.01.052-.015.077-.026s.052-.029.079-.041a6.936,6.936,0,0,0,1.592-.968c.065-.053.128-.107.191-.162s.139-.112.205-.174l22.08-20.724h11.049a20.263,20.263,0,0,1,20.157,22.306Z"/><path fill="#083863" d="M211.84,89.7V78.72a33.038,33.038,0,0,0-33-33h-.49a33.038,33.038,0,0,0-33,33V89.7a33.038,33.038,0,0,0,33,33h.49A33.038,33.038,0,0,0,211.84,89.7Zm-14,0a19.021,19.021,0,0,1-19,19h-.49a19.021,19.021,0,0,1-19-19V78.72a19.021,19.021,0,0,1,19-19h.49a19.021,19.021,0,0,1,19,19Z"/><path fill="#083863" d="M366.65,89.7V78.72a33.038,33.038,0,0,0-33-33h-.49a33.038,33.038,0,0,0-33,33V89.7a33.038,33.038,0,0,0,33,33h.49A33.038,33.038,0,0,0,366.65,89.7Zm-14,0a19.021,19.021,0,0,1-19,19h-.49a19.021,19.021,0,0,1-19-19V78.72a19.021,19.021,0,0,1,19-19h.49a19.021,19.021,0,0,1,19,19Z"/></g></svg>