<svg xmlns="http://www.w3.org/2000/svg"  viewBox="0 0 91 91" width="128px" height="128px"><path fill="#B1E1F8" d="M68.972,51.643l-3.447-14.02c-0.789-3.211,1.174-6.457,4.391-7.248l2.729-0.67 c3.213-0.791,6.457,1.174,7.246,4.387l3.445,14.02"/><path fill="#434B56" d="M68.97,54.154c-1.129,0-2.156-0.766-2.438-1.912l-3.447-14.018c-1.119-4.556,1.678-9.169,6.23-10.289 l2.729-0.67c2.201-0.541,4.49-0.195,6.432,0.982c1.943,1.176,3.313,3.039,3.854,5.246l3.445,14.018 c0.332,1.348-0.492,2.707-1.84,3.039c-1.35,0.332-2.709-0.492-3.039-1.84l-3.445-14.02c-0.223-0.902-0.781-1.664-1.576-2.145 c-0.793-0.482-1.727-0.625-2.629-0.402l-2.732,0.672c-1.861,0.457-3.006,2.346-2.549,4.209l3.447,14.016 c0.332,1.348-0.492,2.709-1.838,3.041C69.37,54.131,69.169,54.154,68.97,54.154z"/><path fill="#F17897" d="M10.61,66.359L7.163,52.34c-0.791-3.213,1.172-6.458,4.389-7.25l2.729-0.67 c3.213-0.788,6.453,1.176,7.248,4.387l3.447,14.021"/><path fill="#434B56" d="M10.608,68.871c-1.129,0-2.156-0.766-2.438-1.912l-3.447-14.02c-1.121-4.551,1.672-9.166,6.227-10.29 l2.732-0.67c4.547-1.115,9.158,1.675,10.285,6.223l3.447,14.025c0.332,1.348-0.492,2.707-1.84,3.039s-2.707-0.492-3.039-1.84 l-3.447-14.021c-0.461-1.859-2.35-3-4.209-2.547l-2.73,0.67c-1.861,0.459-3.004,2.348-2.547,4.209L13.05,65.76 c0.332,1.346-0.492,2.707-1.84,3.039C11.009,68.848,10.808,68.871,10.608,68.871z"/><path fill="#434B56" d="M53.833,81.656c-0.004,0-0.012,0-0.02,0H40.067c-0.801,0-1.553-0.381-2.027-1.027 c-0.473-0.645-0.609-1.477-0.369-2.24l6.783-21.525c0.33-1.043,1.295-1.754,2.387-1.758c0.004,0,0.008,0,0.01,0 c1.09,0,2.055,0.701,2.391,1.738l6.869,21.234c0.15,0.324,0.236,0.686,0.236,1.066C56.347,80.531,55.222,81.656,53.833,81.656z M43.493,76.631h6.867l-3.479-10.754L43.493,76.631z"/><path fill="#434B56" d="M5.226,70.195c-1.127,0-2.15-0.762-2.436-1.902c-0.338-1.348,0.48-2.711,1.826-3.049l83.033-20.782 c1.344-0.335,2.709,0.48,3.047,1.827c0.338,1.348-0.48,2.711-1.826,3.049L5.837,70.119C5.632,70.17,5.427,70.195,5.226,70.195z"/><path fill="#FDE9D0" d="M17.532,32.535c0.971,3.969-1.455,7.972-5.422,8.947c-3.969,0.979-7.971-1.445-8.949-5.414 c-0.975-3.969,1.453-7.975,5.414-8.951C12.546,26.145,16.552,28.566,17.532,32.535z"/><path fill="#434B56" d="M10.335,44.213c-4.566,0-8.52-3.104-9.613-7.545c-1.305-5.305,1.949-10.682,7.252-11.99 c0.781-0.191,1.578-0.287,2.373-0.287c4.57,0,8.527,3.102,9.625,7.541c1.299,5.311-1.959,10.687-7.262,11.991 C11.933,44.116,11.132,44.213,10.335,44.213z M10.347,29.416c-0.391,0-0.787,0.047-1.172,0.143 c-2.611,0.643-4.217,3.295-3.574,5.91c0.541,2.189,2.486,3.718,4.734,3.718c0.393,0,0.787-0.049,1.176-0.145 c2.615-0.643,4.221-3.294,3.58-5.91C14.552,30.945,12.601,29.416,10.347,29.416z"/><path fill="#E0F1F8" d="M75.888,17.818c0.977,3.969-1.449,7.973-5.416,8.949c-3.967,0.975-7.973-1.449-8.949-5.416 c-0.975-3.967,1.451-7.971,5.414-8.951C70.905,11.428,74.909,13.854,75.888,17.818z"/><path fill="#434B56" d="M68.7,29.496c-4.57,0-8.525-3.104-9.617-7.545c-1.303-5.301,1.951-10.68,7.25-11.99 c0.781-0.191,1.578-0.287,2.373-0.287c4.568,0,8.525,3.102,9.621,7.543c0.633,2.57,0.227,5.234-1.145,7.498 c-1.369,2.264-3.539,3.859-6.109,4.492C70.294,29.398,69.495,29.496,68.7,29.496z M68.706,14.699 c-0.391,0-0.785,0.047-1.172,0.143c-2.609,0.645-4.213,3.297-3.572,5.91c0.539,2.189,2.488,3.719,4.738,3.719 c0.391,0,0.785-0.049,1.172-0.143c1.268-0.313,2.338-1.1,3.012-2.215c0.676-1.115,0.875-2.428,0.564-3.695 C72.907,16.229,70.958,14.699,68.706,14.699z"/><path fill="#434B56" d="M28.046,80.031c-0.605,0-1.211-0.217-1.693-0.656L13.019,67.207c-1.025-0.936-1.098-2.523-0.164-3.549 c0.938-1.025,2.525-1.098,3.551-0.164l13.334,12.168c1.025,0.936,1.098,2.523,0.164,3.549 C29.407,79.754,28.728,80.031,28.046,80.031z"/><path fill="#434B56" d="M32.632,72.141c-0.441,0-0.889-0.117-1.295-0.361l-10.227-6.17c-1.188-0.717-1.57-2.262-0.854-3.449 c0.717-1.189,2.264-1.57,3.449-0.854l10.227,6.17c1.188,0.717,1.572,2.262,0.854,3.449 C34.313,71.707,33.483,72.141,32.632,72.141z"/><path fill="#434B56" d="M81.085,69.912c-1.258,0-2.344-0.943-2.492-2.223l-2.115-18.215c-0.16-1.379,0.828-2.627,2.205-2.787 c1.383-0.148,2.627,0.83,2.787,2.207l2.115,18.215c0.16,1.379-0.828,2.625-2.207,2.785C81.28,69.906,81.183,69.912,81.085,69.912 z"/><path fill="#434B56" d="M70.302,68.256c-0.057,0-0.113-0.002-0.17-0.006c-1.385-0.092-2.432-1.289-2.34-2.674l0.98-14.668 c0.092-1.387,1.311-2.434,2.674-2.34c1.385,0.092,2.432,1.289,2.34,2.674l-0.98,14.668 C72.718,67.238,71.612,68.256,70.302,68.256z"/></svg>