<?xml version="1.0" encoding="UTF-8"?>
<svg xmlns="http://www.w3.org/2000/svg" xmlns:xlink="http://www.w3.org/1999/xlink" viewBox="0 0 100 100" width="100px" height="100px">
<g id="surface62491380">
<path style=" stroke:none;fill-rule:nonzero;fill:#ec4899;fill-opacity:1;" d="M 50 4 C 24.632812 4 4 24.632812 4 50 C 4 75.367188 24.632812 96 50 96 C 75.367188 96 96 75.367188 96 50 C 96 24.632812 75.367188 4 50 4 Z M 70 64 L 30 64 C 28.898438 64 28 63.109375 28 62 C 28 60.890625 28.898438 60 30 60 L 70 60 C 71.109375 60 72 60.890625 72 62 C 72 63.109375 71.109375 64 70 64 Z M 70 52 L 30 52 C 28.898438 52 28 51.101562 28 50 C 28 48.898438 28.898438 48 30 48 L 70 48 C 71.109375 48 72 48.898438 72 50 C 72 51.101562 71.109375 52 70 52 Z M 70 40 L 30 40 C 28.898438 40 28 39.101562 28 38 C 28 36.898438 28.898438 36 30 36 L 70 36 C 71.109375 36 72 36.898438 72 38 C 72 39.101562 71.109375 40 70 40 Z M 70 40 "/>
</g>
</svg>
