<svg xmlns="http://www.w3.org/2000/svg"  viewBox="0 0 128 128" width="128px" height="128px"><path fill="#E6E7E8" d="M123.187,46.824c-1.066-1.188-2.596-1.879-4.197-1.896c-0.019,0-0.036,0-0.055,0 c-2.813,0-5.249,2.182-5.679,5.096l-2.615,17.707c-1.581-0.199-3.184,0.306-4.37,1.425l-8.58,8.103 c-2.117,1.999-4.506,3.684-7.1,5.008l-2.558,1.304c-2.516,1.278-4.658,2.902-6.365,4.826c-5.685,6.382-4.204,16.178-4.009,17.316 v13.779c0,1.654,1.346,3,3,3h16.584c1.654,0,3-1.346,3-3v-10.85c0-1.564,0.745-3.058,1.993-3.995 c3.627-2.719,10.277-7.817,14.082-11.409c3.413-3.224,4.543-7.57,4.891-10.651c0.286-2.584,3.411-31.38,3.412-31.39 C124.777,49.607,124.254,48.013,123.187,46.824z"/><path fill="#E6E7E8" d="M42.968,83.571l-2.559-1.305c-2.595-1.324-4.984-3.01-7.1-5.009l-8.58-8.102 c-1.186-1.119-2.784-1.626-4.371-1.425l-2.615-17.706c-0.43-2.916-2.866-5.097-5.678-5.097c-0.019,0-0.037,0-0.056,0 c-1.601,0.017-3.131,0.707-4.197,1.896c-1.067,1.189-1.59,2.783-1.433,4.383c0,0,3.125,28.796,3.411,31.382 c0.346,3.078,1.476,7.424,4.89,10.648c3.795,3.585,10.452,8.688,14.082,11.41c1.249,0.937,1.994,2.431,1.994,3.995v10.85 c0,1.654,1.346,3,3,3h16.585c1.654,0,3-1.346,3-3v-13.779c0.196-1.139,1.675-10.935-4.008-17.315 C47.624,86.471,45.482,84.847,42.968,83.571z"/><path fill="#E6E7E8" d="M92.05,66.475c7.205-12.008,9.183-27.9,9.721-36.306c0.201-3.181-1.545-6.197-4.346-7.508L68.647,9.21 c-1.998-0.933-4.293-0.934-6.292,0L33.576,22.662c-2.802,1.31-4.548,4.326-4.347,7.508c0.537,8.403,2.514,24.293,9.721,36.306 c9.145,15.243,20.439,19.394,24.873,20.471c0.549,0.133,1.113,0.199,1.677,0.199c0.564,0,1.129-0.066,1.679-0.199 C71.61,85.869,82.904,81.718,92.05,66.475z"/><g><path fill="#FFD7E5" d="M114.979,41.928c-2.395-0.024-4.384,1.872-4.734,4.242l-2.773,18.781 c-1.515-0.539-3.266-0.248-4.515,0.932l-8.579,8.102c-2.185,2.064-4.654,3.805-7.332,5.171l-2.559,1.306 c-2.284,1.16-4.372,2.686-6.071,4.599c-5.656,6.349-3.756,16.564-3.756,16.564v13.867c0,1.105,0.895,2,2,2h16.585 c1.105,0,2-0.895,2-2v-10.85c0-1.887,0.884-3.663,2.394-4.795c3.556-2.667,10.22-7.772,13.995-11.337 c3.228-3.048,4.267-7.226,4.583-10.034c0.286-2.584,3.411-31.377,3.411-31.377C119.895,44.359,117.763,41.957,114.979,41.928z"/><path fill="#FFF" d="M93.244,114.492H76.659c-1.105,0-2-0.895-2-2v3c0,1.105,0.895,2,2,2h16.585c1.105,0,2-0.895,2-2v-3 C95.244,113.597,94.348,114.492,93.244,114.492z"/><path fill="#FFD7E5" d="M8.021,41.928c2.395-0.024,4.384,1.872,4.734,4.242l2.773,18.781c1.515-0.539,3.266-0.248,4.515,0.932 l8.579,8.102c2.185,2.064,4.654,3.805,7.332,5.171l2.559,1.306c2.284,1.16,4.372,2.686,6.071,4.599 c5.656,6.349,3.756,16.564,3.756,16.564v13.867c0,1.105-0.895,2-2,2H29.757c-1.105,0-2-0.895-2-2v-10.85 c0-1.887-0.884-3.663-2.394-4.795c-3.556-2.667-10.22-7.772-13.995-11.337c-3.228-3.048-4.267-7.226-4.583-10.034 c-0.286-2.584-3.411-31.377-3.411-31.377C3.106,44.359,5.237,41.957,8.021,41.928z"/><g><path fill="#6DC9F7" d="M58.778,6.116L29.999,19.568c-2.447,1.143-3.949,3.75-3.772,6.538c0.5,7.83,2.397,23.881,9.581,35.855 c9.061,15.104,20.312,19.057,24.25,20.013c0.95,0.23,1.934,0.23,2.884,0c3.938-0.957,15.189-4.91,24.25-20.013 c7.184-11.973,9.08-28.026,9.58-35.855c0.177-2.788-1.326-5.395-3.772-6.538L64.223,6.116 C62.491,5.306,60.508,5.306,58.778,6.116L58.778,6.116z"/><path fill="#D4FBFF" d="M59.231,12.401L35.25,23.611c-2.039,0.953-3.291,3.125-3.143,5.448 c0.417,6.525,1.998,19.901,7.984,29.879c7.551,12.586,16.927,15.88,20.208,16.678c0.792,0.191,1.612,0.191,2.403,0 c3.282-0.797,12.657-4.091,20.208-16.678c5.987-9.978,7.567-23.355,7.984-29.879c0.148-2.323-1.105-4.495-3.143-5.448 L63.769,12.401C62.326,11.726,60.674,11.726,59.231,12.401L59.231,12.401z"/><path fill="#0089EF" d="M58.828,58.91c-1.054,0-2.07-0.417-2.82-1.168L45.491,47.227c-1.558-1.558-1.558-4.084,0-5.641 c1.556-1.558,4.082-1.558,5.641-0.001l7.249,7.248L71.486,31.19c1.314-1.769,3.811-2.135,5.581-0.823 c1.769,1.313,2.137,3.812,0.823,5.581L62.03,57.3c-0.691,0.93-1.753,1.515-2.91,1.599C59.022,58.907,58.925,58.91,58.828,58.91z"/><path fill="#3A2C60" d="M119.187,42.824c-1.067-1.188-2.597-1.879-4.198-1.896c-0.019,0-0.036,0-0.055,0 c-2.813,0-5.249,2.181-5.679,5.095l-2.615,17.708c-1.584-0.205-3.185,0.305-4.37,1.424l-8.58,8.103 c-2.117,2-4.506,3.685-7.1,5.008l-2.558,1.305c-2.516,1.277-4.657,2.901-6.365,4.825c-5.685,6.382-4.204,16.179-4.009,17.317 v13.779c0,1.654,1.346,3,3,3h16.584c1.654,0,3-1.346,3-3v-10.85c0-1.565,0.745-3.059,1.993-3.995 c3.625-2.718,10.273-7.813,14.082-11.41c3.415-3.225,4.544-7.571,4.891-10.65c0.286-2.586,3.411-31.38,3.412-31.39 C120.777,45.607,120.254,44.013,119.187,42.824z M115.221,78.365c-0.309,2.746-1.301,6.608-4.275,9.418 c-3.737,3.528-10.318,8.572-13.908,11.265c-1.75,1.313-2.794,3.403-2.794,5.595v10.85c0,0.552-0.448,1-1,1H76.659 c-0.552,0-1-0.448-1-1v-13.867c0-0.061-0.006-0.122-0.017-0.182c-0.019-0.098-1.736-9.818,3.521-15.719 c1.541-1.736,3.484-3.207,5.777-4.372l2.559-1.306c2.764-1.41,5.309-3.204,7.564-5.334l8.58-8.104 c0.638-0.602,1.467-0.92,2.32-0.92c0.392,0,0.788,0.066,1.173,0.204l0,0c0.508,0.182,0.954,0.474,1.327,0.87 c0.627,0.664,0.958,1.533,0.933,2.446c-0.026,0.913-0.407,1.762-1.071,2.39L93.023,86.05c-0.401,0.379-0.42,1.012-0.04,1.413 c0.196,0.208,0.461,0.313,0.727,0.313c0.246,0,0.493-0.091,0.687-0.273l15.302-14.449c1.053-0.994,1.655-2.339,1.697-3.786 c0.041-1.448-0.483-2.825-1.478-3.876c-0.39-0.415-0.85-0.759-1.348-1.031l2.665-18.045c0.286-1.937,1.873-3.387,3.7-3.387 c0.011,0,0.023,0,0.035,0c1.057,0.011,2.026,0.448,2.729,1.231c0.704,0.784,1.035,1.793,0.934,2.832 C118.632,46.992,115.507,75.782,115.221,78.365z"/><path fill="#3A2C60" d="M38.969,79.571l-2.56-1.306c-2.595-1.324-4.983-3.009-7.1-5.007l-8.58-8.104 c-1.186-1.118-2.782-1.628-4.371-1.424l-2.615-17.707c-0.43-2.915-2.865-5.096-5.678-5.096c-0.019,0-0.037,0-0.056,0 c-1.601,0.017-3.131,0.707-4.198,1.896c-1.067,1.189-1.59,2.783-1.433,4.383c0,0,3.125,28.794,3.411,31.382 c0.346,3.078,1.476,7.424,4.89,10.648c3.805,3.593,10.456,8.691,14.082,11.41c1.248,0.937,1.993,2.43,1.993,3.995v10.85 c0,1.654,1.346,3,3,3h16.585c1.654,0,3-1.346,3-3v-13.779c0.196-1.139,1.675-10.936-4.008-17.316 C43.624,82.472,41.482,80.848,38.969,79.571z M47.358,101.443c-0.011,0.06-0.017,0.121-0.017,0.182v13.867c0,0.552-0.449,1-1,1 H29.756c-0.551,0-1-0.448-1-1v-10.85c0-2.191-1.044-4.283-2.793-5.595c-3.592-2.694-10.176-7.74-13.909-11.266 c-2.974-2.808-3.966-6.671-4.275-9.416c-0.286-2.584-3.41-31.364-3.41-31.364c-0.103-1.049,0.228-2.058,0.932-2.842 c0.703-0.783,1.673-1.221,2.73-1.231c0.012,0,0.023,0,0.035,0c1.826,0,3.413,1.45,3.699,3.388l2.665,18.044 c-0.497,0.272-0.957,0.615-1.348,1.03c-0.994,1.052-1.519,2.429-1.478,3.877c0.042,1.447,0.645,2.792,1.697,3.785l15.302,14.45 c0.193,0.183,0.44,0.273,0.687,0.273c0.265,0,0.53-0.105,0.727-0.313c0.379-0.401,0.361-1.034-0.041-1.413L14.675,71.599 c-0.665-0.627-1.045-1.476-1.071-2.389c-0.026-0.913,0.305-1.782,0.932-2.446c0.374-0.396,0.82-0.688,1.326-0.87 c0,0,0,0,0.001,0c1.226-0.436,2.563-0.161,3.494,0.716l8.58,8.103c2.254,2.13,4.799,3.925,7.563,5.335l2.562,1.307 c2.291,1.163,4.234,2.634,5.777,4.372C49.093,91.625,47.376,101.346,47.358,101.443z"/><path fill="#3A2C60" d="M88.05,62.476c7.208-12.014,9.184-27.903,9.721-36.306c0.201-3.181-1.545-6.197-4.346-7.508 L64.646,5.209c-1.999-0.934-4.294-0.934-6.292,0l-5.122,2.395c-0.5,0.234-0.716,0.829-0.482,1.33 c0.234,0.501,0.832,0.714,1.329,0.482l5.122-2.395c1.46-0.684,3.136-0.684,4.598,0l28.778,13.453 c2.063,0.964,3.348,3.202,3.197,5.568c-0.525,8.221-2.449,23.753-9.439,35.403c-8.759,14.599-19.442,18.539-23.629,19.556 c-0.8,0.193-1.611,0.193-2.412,0c-4.187-1.017-14.87-4.957-23.628-19.556c-6.99-11.65-8.915-27.183-9.44-35.403 c-0.15-2.367,1.135-4.604,3.197-5.568l3.667-1.715c0.5-0.234,0.716-0.829,0.482-1.33c-0.234-0.5-0.83-0.712-1.329-0.482 l-3.667,1.715c-2.802,1.31-4.548,4.326-4.347,7.508c0.537,8.402,2.514,24.292,9.722,36.306 c9.146,15.246,20.44,19.394,24.871,20.47c0.549,0.133,1.114,0.2,1.678,0.2s1.129-0.067,1.677-0.2 C67.609,81.869,78.902,77.722,88.05,62.476z"/><path fill="#3A2C60" d="M38.61,16.544c0.142,0,0.286-0.03,0.423-0.094l10.039-4.693c0.5-0.234,0.716-0.829,0.482-1.33 c-0.234-0.501-0.83-0.713-1.329-0.482l-10.039,4.693c-0.5,0.234-0.716,0.829-0.482,1.33 C37.874,16.331,38.234,16.544,38.61,16.544z"/><path fill="#3A2C60" d="M44.784,40.879c-0.942,0.942-1.461,2.194-1.461,3.527s0.519,2.585,1.461,3.527L55.3,58.449 c0.943,0.942,2.195,1.461,3.527,1.461c0.124,0,0.249-0.005,0.364-0.015c1.448-0.104,2.775-0.834,3.641-1.999l15.861-21.352 c1.641-2.209,1.179-5.341-1.03-6.981c-2.211-1.638-5.342-1.175-6.979,1.03L58.269,47.307l-6.431-6.43 c-0.943-0.941-2.196-1.46-3.528-1.46C46.977,39.417,45.725,39.937,44.784,40.879z M57.674,49.54 c0.205,0.206,0.491,0.313,0.78,0.29c0.29-0.021,0.556-0.167,0.729-0.4l13.105-17.643c0.98-1.321,2.858-1.6,4.182-0.617 s1.6,2.858,0.617,4.182L61.227,56.704c-0.519,0.697-1.313,1.134-2.188,1.197c-0.878,0.067-1.711-0.252-2.325-0.866 L46.198,46.52c-0.564-0.564-0.875-1.315-0.875-2.113s0.311-1.549,0.876-2.114c0.563-0.563,1.313-0.875,2.111-0.875 s1.549,0.312,2.114,0.875L57.674,49.54z"/></g></g></svg>