<?xml version="1.0" encoding="UTF-8"?>
<svg xmlns="http://www.w3.org/2000/svg" xmlns:xlink="http://www.w3.org/1999/xlink" viewBox="0 0 60 60" width="60px" height="60px">
<g id="surface9138024">
<path style=" stroke:none;fill-rule:nonzero;fill:#ef4444;fill-opacity:1;" d="M 53.90625 47.152344 L 50 12 C 50 9.789062 48.210938 8 46 8 L 14 8 C 11.789062 8 10 9.789062 10 12 L 6.09375 47.152344 C 6.035156 47.425781 6 47.707031 6 48 C 6 50.210938 7.789062 52 10 52 L 50 52 C 52.210938 52 54 50.210938 54 48 C 54 47.707031 53.964844 47.425781 53.90625 47.152344 Z M 40 17.816406 L 40 20 C 40 25.515625 35.515625 30 30 30 C 24.484375 30 20 25.515625 20 20 L 20 17.816406 C 18.839844 17.402344 18 16.304688 18 15 C 18 13.34375 19.34375 12 21 12 C 22.65625 12 24 13.34375 24 15 L 24 20 C 24 23.308594 26.691406 26 30 26 C 33.308594 26 36 23.308594 36 20 L 36 15 C 36 13.34375 37.34375 12 39 12 C 40.65625 12 42 13.34375 42 15 C 42 16.304688 41.160156 17.402344 40 17.816406 Z M 40 17.816406 "/>
</g>
</svg>
