<?xml version="1.0" encoding="UTF-8"?>
<svg xmlns="http://www.w3.org/2000/svg" xmlns:xlink="http://www.w3.org/1999/xlink" viewBox="0 0 50 50" width="50px" height="50px">
<g id="surface53615099">
<path style=" stroke:none;fill-rule:nonzero;fill:rgb(63.137257%,15.686275%,71.764708%);fill-opacity:1;" d="M 10.199219 48.601562 C 10 48.601562 9.800781 48.5 9.601562 48.398438 C 9.300781 48.199219 9.101562 47.699219 9.199219 47.300781 L 13.601562 30.898438 L 0.398438 20.199219 C 0 20 -0.101562 19.5 0 19.101562 C 0.101562 18.699219 0.5 18.398438 0.898438 18.398438 L 17.898438 17.5 L 24 1.601562 C 24.199219 1.300781 24.601562 1 25 1 C 25.398438 1 25.800781 1.300781 25.898438 1.601562 L 32 17.5 L 49 18.398438 C 49.398438 18.398438 49.800781 18.699219 49.898438 19.101562 C 50 19.5 49.898438 19.898438 49.601562 20.199219 L 36.398438 30.898438 L 40.800781 47.300781 C 40.898438 47.699219 40.800781 48.101562 40.398438 48.398438 C 40.101562 48.601562 39.601562 48.699219 39.300781 48.398438 L 25 39.199219 L 10.699219 48.398438 C 10.5 48.601562 10.398438 48.601562 10.199219 48.601562 Z M 10.199219 48.601562 "/>
</g>
</svg>
