<svg xmlns="http://www.w3.org/2000/svg"  viewBox="0 0 256 256" width="64px" height="64px" fill-rule="evenodd" clip-rule="evenodd"><path fill="#d6df58" d="M73.449,155.257c-0.974,11.564-13.024,13.39-13.024,13.39c10.347,0.487,12.925,14.059,12.925,14.059 c0.221-9.677,13.321-14.202,13.321-14.202C76.857,167.916,73.449,155.257,73.449,155.257z"/><path fill="#3a312a" d="M86.761,167.006c-8.605-0.514-11.833-12.024-11.864-12.14c-0.19-0.702-0.849-1.158-1.584-1.102 c-0.725,0.066-1.298,0.642-1.359,1.367c-0.859,10.215-11.313,11.963-11.754,12.032c-0.763,0.115-1.313,0.79-1.273,1.561 c0.04,0.77,0.657,1.384,1.428,1.421c9.028,0.425,11.499,12.718,11.523,12.842c0.138,0.711,0.76,1.217,1.473,1.217 c0.042,0,0.084-0.001,0.126-0.005c0.765-0.064,1.357-0.693,1.375-1.459c0.193-8.508,12.191-12.777,12.313-12.819 c0.676-0.235,1.092-0.914,0.994-1.623C88.058,167.59,87.475,167.049,86.761,167.006z M73.194,177.352 c-1.356-3.131-3.709-6.908-7.587-8.877c2.931-1.404,6.408-3.913,8.201-8.272c1.551,3.071,4.2,6.88,8.335,8.722 C79.136,170.565,75.221,173.331,73.194,177.352z"/><path fill="#d6df58" d="M51.75,172.238c-0.689,8.179-9.213,9.47-9.213,9.47c7.318,0.344,9.142,9.944,9.142,9.944 c0.156-6.844,9.422-10.045,9.422-10.045C54.161,181.192,51.75,172.238,51.75,172.238z"/><path fill="#3a312a" d="M61.191,180.109c-5.744-0.344-7.955-8.126-7.993-8.263c-0.19-0.703-0.867-1.165-1.582-1.103 c-0.726,0.065-1.3,0.643-1.361,1.368c-0.578,6.87-7.646,8.066-7.942,8.113c-0.763,0.115-1.313,0.79-1.273,1.561 c0.04,0.77,0.657,1.384,1.428,1.421c6.035,0.284,7.724,8.644,7.739,8.726c0.136,0.712,0.759,1.22,1.473,1.22 c0.041,0,0.083-0.001,0.125-0.005c0.765-0.063,1.358-0.694,1.376-1.461c0.13-5.709,8.331-8.634,8.412-8.662 c0.676-0.234,1.093-0.913,0.996-1.622C62.49,180.694,61.905,180.152,61.191,180.109z M51.606,186.905 c-0.924-1.886-2.34-3.947-4.447-5.28c1.856-1.042,3.698-2.63,4.871-4.917c1.058,1.874,2.654,3.955,4.941,5.224 C55.122,183.033,52.982,184.672,51.606,186.905z"/><path fill="#d6df58" d="M51.75,145.58c-0.689,8.179-9.213,9.471-9.213,9.471c7.318,0.344,9.142,9.944,9.142,9.944 c0.156-6.845,9.422-10.045,9.422-10.045C54.161,154.534,51.75,145.58,51.75,145.58z"/><path fill="#3a312a" d="M61.191,153.452c-5.766-0.345-7.972-8.186-7.994-8.265c-0.19-0.702-0.865-1.159-1.581-1.102 c-0.726,0.065-1.3,0.643-1.361,1.368c-0.578,6.871-7.646,8.067-7.942,8.114c-0.763,0.115-1.313,0.79-1.273,1.561 c0.04,0.77,0.657,1.384,1.428,1.421c6.035,0.284,7.724,8.644,7.739,8.726c0.136,0.713,0.759,1.22,1.473,1.22 c0.041,0,0.083-0.001,0.125-0.005c0.765-0.063,1.358-0.694,1.376-1.461c0.13-5.709,8.331-8.634,8.412-8.662 c0.676-0.234,1.093-0.913,0.996-1.622C62.49,154.037,61.905,153.495,61.191,153.452z M51.606,160.247 c-0.924-1.885-2.34-3.947-4.447-5.28c1.856-1.041,3.698-2.63,4.871-4.916c1.058,1.874,2.654,3.954,4.941,5.223 C55.122,156.375,52.982,158.015,51.606,160.247z"/><path fill="#fae6ca" d="M206.976,183.11h-19.53v-12.693c-5.402,3.745-10.991,5.954-16.415,5.954 c-5.203,0-10.693-2.231-16.073-6.021h-0.331v12.759h-19.542c-16.327,0-29.56,13.234-29.56,29.56v26.788h131.012V212.67 C236.537,196.343,223.303,183.11,206.976,183.11z"/><path fill="#3a312a" d="M206.977,181.609h-18.03v-11.192c0-0.558-0.31-1.07-0.805-1.329c-0.494-0.258-1.09-0.222-1.55,0.096 c-5.444,3.773-10.68,5.687-15.561,5.687c-4.678,0-9.795-1.934-15.209-5.747c-0.253-0.178-0.555-0.274-0.864-0.274h-0.331 c-0.828,0-1.5,0.671-1.5,1.5v11.259h-18.042c-17.127,0-31.061,13.934-31.061,31.061v26.788c0,0.829,0.672,1.5,1.5,1.5h44.891 c0.828,0,1.5-0.671,1.5-1.5s-0.672-1.5-1.5-1.5h-43.391V212.67c0-15.473,12.588-28.061,28.061-28.061h19.542 c0.828,0,1.5-0.671,1.5-1.5v-10.176c5.2,3.278,10.205,4.938,14.904,4.938c4.776,0,9.782-1.576,14.915-4.69v9.929 c0,0.829,0.672,1.5,1.5,1.5h19.53c15.473,0,28.061,12.588,28.061,28.061v25.288h-69.855c-0.828,0-1.5,0.671-1.5,1.5 s0.672,1.5,1.5,1.5h71.355c0.828,0,1.5-0.671,1.5-1.5V212.67C238.037,195.543,224.104,181.609,206.977,181.609z"/><path fill="#8ac5dc" d="M206.977,183.101h-4.673l0.122,0.088l-20.315,26.943l-10.483-7.898l-10.483,7.898l-20.315-26.943 l0.121-0.088h-5.866c-16.327,0-29.561,13.234-29.561,29.56v26.799h131.012v-26.799 C236.537,196.335,223.304,183.101,206.977,183.101z"/><path fill="#3a312a" d="M206.977,181.601h-4.672c-0.649,0-1.225,0.417-1.426,1.035c-0.02,0.058-0.034,0.116-0.046,0.174 l-19.017,25.222l-9.286-6.997c-0.533-0.402-1.271-0.402-1.805,0l-9.286,6.997l-19.017-25.222 c-0.012-0.058-0.026-0.116-0.046-0.174c-0.201-0.618-0.776-1.035-1.426-1.035h-5.865c-17.127,0-31.06,13.934-31.06,31.061v26.799 c0,0.829,0.672,1.5,1.5,1.5h44.89c0.828,0,1.5-0.671,1.5-1.5s-0.672-1.5-1.5-1.5h-43.39v-25.299 c0-15.473,12.588-28.061,28.06-28.061h4.93l19.932,26.434c0.496,0.661,1.437,0.793,2.1,0.295l9.581-7.219l9.581,7.219 c0.661,0.498,1.602,0.367,2.1-0.295l19.932-26.434h3.736c15.473,0,28.061,12.588,28.061,28.061v25.299h-69.855 c-0.828,0-1.5,0.671-1.5,1.5s0.672,1.5,1.5,1.5h71.355c0.828,0,1.5-0.671,1.5-1.5v-26.799 C238.037,195.534,224.104,181.601,206.977,181.601z"/><circle cx="120.272" cy="109.831" r="11.631" fill="#fae6ca" fill-rule="evenodd" clip-rule="evenodd" transform="rotate(-22.5 120.266 109.826)"/><path fill="#3a312a" d="M120.271,96.699c-7.24,0-13.131,5.891-13.131,13.131s5.891,13.131,13.131,13.131 c7.241,0,13.132-5.891,13.132-13.131S127.513,96.699,120.271,96.699z M120.271,119.962c-5.586,0-10.131-4.545-10.131-10.131 s4.545-10.131,10.131-10.131c5.587,0,10.132,4.545,10.132,10.131S125.858,119.962,120.271,119.962z"/><circle cx="221.794" cy="109.831" r="11.631" fill="#fae6ca" fill-rule="evenodd" clip-rule="evenodd"/><path fill="#3a312a" d="M221.794,96.699c-7.241,0-13.132,5.891-13.132,13.131s5.891,13.131,13.132,13.131 s13.132-5.891,13.132-13.131S229.035,96.699,221.794,96.699z M221.794,119.962c-5.587,0-10.132-4.545-10.132-10.131 s4.545-10.131,10.132-10.131s10.132,4.545,10.132,10.131S227.381,119.962,221.794,119.962z"/><path fill="#fae6ca" d="M171.033,52.621c-28.478,0-51.563,23.086-51.563,51.563c0,28.477,28.524,72.188,51.563,72.188 c24.137,0,51.563-43.711,51.563-72.188C222.596,75.707,199.51,52.621,171.033,52.621z"/><path fill="#3a312a" d="M171.032,51.121c-29.259,0-53.063,23.804-53.063,53.063c0,13.838,6.67,32.087,17.407,47.626 c11.277,16.319,24.605,26.063,35.655,26.063c11.633,0,24.781-9.502,36.073-26.07c10.479-15.377,16.99-33.624,16.99-47.618 C224.096,74.925,200.292,51.121,171.032,51.121z M204.626,150.113c-10.566,15.504-23.125,24.76-33.594,24.76 c-10.064,0-22.471-9.259-33.187-24.768c-10.409-15.064-16.876-32.66-16.876-45.92c0-27.605,22.458-50.063,50.063-50.063 c27.605,0,50.063,22.458,50.063,50.063C221.096,117.608,214.785,135.207,204.626,150.113z"/><path fill="#3a312a" d="M152.828,98.569c-2.78,0-5.033,2.253-5.033,5.033c0,2.78,2.253,5.033,5.033,5.033s5.033-2.253,5.033-5.033 C157.861,100.823,155.608,98.569,152.828,98.569z"/><path fill="#3a312a" d="M189.237,98.569c-2.78,0-5.033,2.253-5.033,5.033c0,2.78,2.253,5.033,5.033,5.033 c2.78,0,5.033-2.253,5.033-5.033C194.27,100.823,192.017,98.569,189.237,98.569z"/><path fill="#f59689" d="M142.769,112.084c-4.788,0-8.67,2.902-8.67,6.481s3.882,6.481,8.67,6.481c4.788,0,8.67-2.902,8.67-6.481 S147.557,112.084,142.769,112.084z"/><path fill="#f59689" d="M199.296,112.084c-4.788,0-8.67,2.902-8.67,6.481s3.882,6.481,8.67,6.481c4.788,0,8.67-2.902,8.67-6.481 S204.084,112.084,199.296,112.084z"/><path fill="#87796f" d="M224.998,92.266c0-28.18-23.894-51.025-53.37-51.025c-29.475,0-53.37,22.845-53.37,51.026 c0,2.982,0.539,5.204,1.542,7.981c0.473,1.309,8.115-2.871,8.766-3.329c3.254-2.291,5.913-5.396,7.901-8.829 c0.822-1.427,1.507-2.88,2.059-4.333c1.759-4.635,6.539-17.533,11.392-16.521c6.508,1.357,13.885,2.123,21.71,2.123 s15.202-0.767,21.71-2.123c4.853-1.012,9.634,11.886,11.392,16.521c0.552,1.453,1.237,2.906,2.059,4.333 c3.283,5.679,8.829,11.086,15.575,12.069c0.017-0.326,0.428-0.437,0.735-0.548C225.308,98.808,224.998,94.036,224.998,92.266z"/><path fill="#3a312a" d="M226.504,92.841l-0.006-0.575c0-28.962-24.614-52.525-54.87-52.525s-54.87,23.563-54.87,52.526 c0,3.311,0.625,5.704,1.632,8.49c0.195,0.542,0.635,0.956,1.206,1.136c0.187,0.059,0.403,0.086,0.646,0.086 c2.853,0,9.126-3.791,9.188-3.834c3.258-2.292,6.14-5.51,8.338-9.308c0.847-1.472,1.574-3.002,2.161-4.549l0.11-0.29 c5.282-13.939,8.266-15.565,9.573-15.295c6.858,1.43,14.267,2.155,22.017,2.155s15.158-0.725,22.016-2.155 c1.315-0.269,4.29,1.348,9.574,15.295l0.11,0.29c0.587,1.547,1.314,3.077,2.162,4.552c4.102,7.093,10.328,11.879,16.657,12.803 c0.417,0.059,0.842-0.057,1.169-0.325c0.103-0.084,0.193-0.182,0.27-0.289c0.014-0.005,0.024-0.008,0.026-0.009 C226.607,99.932,226.54,95.319,226.504,92.841z M222.514,98.227c-0.149,0.052-0.416,0.146-0.692,0.314 c-5.172-1.058-10.258-5.19-13.732-11.2c-0.767-1.334-1.425-2.719-1.956-4.117l-0.109-0.289 c-3.451-9.108-7.686-18.272-12.992-17.168c-6.657,1.388-13.858,2.092-21.403,2.092s-14.746-0.704-21.404-2.092 c-5.277-1.104-9.539,8.059-12.991,17.168l-0.109,0.288c-0.531,1.398-1.189,2.784-1.954,4.114c-1.98,3.421-4.563,6.31-7.463,8.352 c-0.895,0.607-5.023,2.729-6.788,3.213c-0.724-2.139-1.16-4.09-1.16-6.636c0-27.309,23.269-49.526,51.87-49.526 s51.87,22.217,51.87,49.525l0.007,0.619C223.567,97.197,222.957,98.066,222.514,98.227z"/><rect width="13.182" height="33.743" x="149.662" y="175.82" fill="#87796f" transform="rotate(-37.003 156.247 192.677)"/><path fill="#3a312a" d="M172.869,201.295l-20.309-26.947c-0.499-0.662-1.441-0.795-2.101-0.295l-10.526,7.933 c-0.662,0.499-0.794,1.439-0.296,2.101l20.308,26.947c0.239,0.318,0.596,0.527,0.989,0.583c0.07,0.01,0.14,0.015,0.209,0.015 c0.324,0,0.642-0.105,0.902-0.302l10.527-7.934c0.318-0.239,0.527-0.595,0.583-0.989 C173.212,202.013,173.108,201.613,172.869,201.295z M161.438,208.031l-18.502-24.552l8.131-6.127l18.503,24.551L161.438,208.031z"/><rect width="33.743" height="13.182" x="170.131" y="186.101" fill="#87796f" transform="rotate(-52.994 187.016 192.69)"/><path fill="#3a312a" d="M203.322,181.987l-10.526-7.933c-0.661-0.5-1.603-0.367-2.101,0.295l-20.309,26.947 c-0.239,0.318-0.343,0.718-0.287,1.111c0.056,0.394,0.265,0.75,0.583,0.989l10.527,7.934c0.261,0.197,0.578,0.302,0.902,0.302 c0.069,0,0.14-0.005,0.209-0.015c0.394-0.055,0.75-0.265,0.989-0.583l20.308-26.947 C204.116,183.426,203.984,182.485,203.322,181.987z M181.817,208.031l-8.132-6.128l18.503-24.551l8.131,6.127L181.817,208.031z"/><path fill="#3a312a" d="M130.065,216.788c-0.828,0-1.5,0.671-1.5,1.5v21.172c0,0.829,0.672,1.5,1.5,1.5c0.828,0,1.5-0.671,1.5-1.5 v-21.172C131.565,217.459,130.894,216.788,130.065,216.788z"/><path fill="#3a312a" d="M213.19,216.788c-0.828,0-1.5,0.671-1.5,1.5v21.172c0,0.829,0.672,1.5,1.5,1.5s1.5-0.671,1.5-1.5v-21.172 C214.69,217.459,214.019,216.788,213.19,216.788z"/><path fill="#87796f" d="M170.664,22.72c-36.348,21.383-57.445-19.722-57.445-0.976c0,5.925,2.387,11.835,5.521,17.212l8.675,12.297 c8.753,11.021,19.223,22.772,31.868,26.367c20.368,5.791,56.418-1.433,56.418-30.749C215.7,28.126,199.988,5.469,170.664,22.72z"/><path fill="#3a312a" d="M202.298,18.242c-6.241-3.569-16.927-5.915-32.395,3.185c-21.143,12.439-36.89,2.996-46.295-2.646 c-4.472-2.682-7.422-4.453-9.719-3.154c-1.924,1.09-2.171,3.841-2.171,6.117c0,5.481,1.872,11.358,5.725,17.968 c0.021,0.037,0.045,0.074,0.07,0.109l8.675,12.297c0.017,0.023,0.033,0.046,0.051,0.068 c9.376,11.806,19.817,23.233,32.633,26.877c4.306,1.224,9.364,1.896,14.681,1.896c10.819,0,22.697-2.785,31.408-9.365 c8.007-6.048,12.239-14.597,12.239-24.723C217.2,36.864,212.592,24.13,202.298,18.242z M203.152,69.201 c-12.21,9.222-31.105,10.49-43.46,6.977c-11.987-3.408-22.021-14.422-31.077-25.823l-8.612-12.209 c-3.556-6.116-5.284-11.481-5.284-16.401c0-3.103,0.623-3.492,0.649-3.507c0.778-0.439,4.197,1.617,6.696,3.116 c9.325,5.593,26.684,16.001,49.36,2.659c11.263-6.625,21.424-7.72,29.384-3.167C210.06,26.137,214.2,37.73,214.2,46.873 C214.2,56.152,210.483,63.665,203.152,69.201z"/><path fill="#3a312a" d="M185.806,135.736c-0.777-0.291-1.641,0.103-1.931,0.878c-1.023,2.73-5.024,7.895-12.844,7.895 c-6.109,0-10.327-2.621-12.894-8.013c-0.355-0.748-1.252-1.067-1.999-0.71c-0.748,0.356-1.065,1.251-0.71,1.999 c3.071,6.452,8.321,9.724,15.603,9.724c8.221,0,13.876-5.102,15.652-9.842C186.975,136.892,186.581,136.027,185.806,135.736z"/><path fill="#f16c7a" d="M94.131,78.853c6.779-6.615,10.906-15.349,10.906-24.927c0-20.648-19.156-37.387-42.787-37.387 c-1.492,0-2.965,0.067-4.417,0.198C41.5,18.139,27.882,27.661,22.249,40.651c-0.064,0.147-0.135,0.292-0.197,0.44 c-0.06,0.143-0.11,0.29-0.168,0.434c-1.562,3.882-2.421,8.053-2.421,12.402c0,0.003,0,0.006,0,0.009 c0,0.012-0.001,0.025-0.001,0.037c0,20.665,19.053,37.417,42.555,37.417c3.377,0,6.65-0.371,9.799-1.027 c0.459-0.092,0.917-0.183,1.37-0.288c0.025-0.006,0.051-0.01,0.076-0.016l24.935,8.208c1.66,0.547,3.204-1.093,2.559-2.717 L94.131,78.853z"/><path fill="#3a312a" d="M95.89,79.217c6.874-7.044,10.647-15.988,10.647-25.291c0-21.442-19.867-38.887-44.287-38.887 c-1.514,0-3.045,0.068-4.545,0.203c-16.451,1.412-30.909,11.151-36.834,24.815l-0.077,0.17c-0.042,0.093-0.085,0.186-0.127,0.286 c-0.038,0.093-0.074,0.187-0.109,0.28l-0.065,0.17c-1.679,4.172-2.529,8.533-2.529,12.961c0,0.015,0,0.031,0.001,0.046h-0.001 c0,21.459,19.763,38.917,44.055,38.917c3.333,0,6.732-0.356,10.092-1.056c0.361-0.072,0.724-0.145,1.075-0.221l24.544,8.079 c0.373,0.123,0.754,0.183,1.129,0.183c0.96,0,1.888-0.392,2.576-1.123c0.959-1.017,1.233-2.456,0.719-3.755L95.89,79.217z M99.25,96.695c-0.092,0.097-0.287,0.245-0.583,0.148l-24.936-8.208c-0.138-0.045-0.303-0.066-0.467-0.066 c-0.145,0-0.289,0.016-0.414,0.045c-0.439,0.101-0.883,0.189-1.34,0.281c-3.171,0.66-6.365,0.995-9.493,0.995 c-22.638,0-41.055-16.112-41.054-35.955c0-0.017,0-0.035-0.001-0.052c0.006-4.028,0.783-7.998,2.31-11.794l0.352-0.842 c5.491-12.663,18.969-21.697,34.342-23.016c1.418-0.127,2.858-0.192,4.283-0.192c22.766,0,41.287,16.099,41.287,35.887 c0,8.803-3.712,17.275-10.453,23.854c-0.433,0.422-0.569,1.064-0.347,1.626l6.626,16.697 C99.477,96.392,99.342,96.598,99.25,96.695z"/><path fill="#3a312a" d="M83.852,37.894H38.838c-0.828,0-1.5,0.671-1.5,1.5c0,0.829,0.672,1.5,1.5,1.5h45.014 c0.828,0,1.5-0.671,1.5-1.5C85.352,38.565,84.68,37.894,83.852,37.894z"/><path fill="#3a312a" d="M90.215,52.382H34.162c-0.828,0-1.5,0.671-1.5,1.5c0,0.829,0.672,1.5,1.5,1.5h56.053 c0.828,0,1.5-0.671,1.5-1.5C91.715,53.054,91.043,52.382,90.215,52.382z"/><path fill="#3a312a" d="M83.852,66.871H38.838c-0.828,0-1.5,0.671-1.5,1.5c0,0.829,0.672,1.5,1.5,1.5h45.014 c0.828,0,1.5-0.671,1.5-1.5C85.352,67.542,84.68,66.871,83.852,66.871z"/><path fill="#6ca6be" d="M206.977,184.603h-3.74l-1.59,2.11c10.2,4.21,17.39,14.26,17.39,25.95v25.3h16v-25.3 C235.037,197.193,222.447,184.603,206.977,184.603z"/></svg>