<svg xmlns="http://www.w3.org/2000/svg"  viewBox="0 0 512 512" width="100px" height="100px"><g data-name="two tone"><path fill="#3a69ff" d="M152,240H280v-6.4a30.746,30.746,0,0,0-12-24.37l-6.458-4.968A14.2,14.2,0,0,1,256,193.008h0a33.009,33.009,0,0,0-16.241-28.432h0A33.007,33.007,0,0,0,222.992,160h-1.22a35.569,35.569,0,0,0-11.248,1.825h0a35.573,35.573,0,0,0-23.26,25.118h0a31.72,31.72,0,0,1-14.922,19.783l-1.894,1.093A36.874,36.874,0,0,0,152,239.759Z"/><rect width="208" height="232" x="104" y="256" fill="#5b83fe"/><path fill="#ffb3d0" d="M232,260V216H208v44a12,12,0,0,0,12,12h0A12,12,0,0,0,232,260Z"/><rect width="496" height="104" x="8" y="24" fill="#ef88ba"/><polygon fill="#e162a1" points="64 37.782 76.361 62.828 104 66.844 84 86.339 88.721 113.867 64 100.87 39.279 113.867 44 86.339 24 66.844 51.639 62.828 64 37.782"/><polygon fill="#e162a1" points="160 37.782 172.361 62.828 200 66.844 180 86.339 184.721 113.867 160 100.87 135.279 113.867 140 86.339 120 66.844 147.639 62.828 160 37.782"/><polygon fill="#e162a1" points="256 37.782 268.361 62.828 296 66.844 276 86.339 280.721 113.867 256 100.87 231.279 113.867 236 86.339 216 66.844 243.639 62.828 256 37.782"/><polygon fill="#e162a1" points="352 37.782 364.361 62.828 392 66.844 372 86.339 376.721 113.867 352 100.87 327.279 113.867 332 86.339 312 66.844 339.639 62.828 352 37.782"/><polygon fill="#ef88ba" points="448 37.782 460.361 62.828 488 66.844 468 86.339 472.721 113.867 448 100.87 423.279 113.867 428 86.339 408 66.844 435.639 62.828 448 37.782"/><polygon fill="#e162a1" points="424 144 436.361 169.045 464 173.062 444 192.557 448.721 220.085 424 207.088 399.279 220.085 404 192.557 384 173.062 411.639 169.045 424 144"/><path fill="#ffb3d0" d="M283.98,407.47A8,8,0,0,1,276,416a8,8,0,0,1,7.98,8.53,8.176,8.176,0,0,1-8.25,7.47H272a8,8,0,0,1,7.98,8.53,8.176,8.176,0,0,1-8.25,7.47H268a8,8,0,0,1,7.98,8.53,8.176,8.176,0,0,1-8.25,7.47H67.42a40,40,0,0,1-37.59-53.67l19.94-54.84,60.18,21.79L101.69,400H224l9.12-6.08A15.769,15.769,0,0,1,256,400h19.73A8.176,8.176,0,0,1,283.98,407.47Z"/><path fill="#5b83fe" d="M108.36,256a32.005,32.005,0,0,1,30.08,42.94l-28.49,78.34L49.77,355.49l28.52-78.43A32.017,32.017,0,0,1,108.36,256Z"/><path fill="#5b83fe" d="M377.85,352l-59.03,24.74L269.43,256h42.29a39.994,39.994,0,0,1,37.02,24.86Z"/><path fill="#ffb3d0" d="M496,216l-6.51,26.05a12.006,12.006,0,0,1-7.19,8.23L448,264V408.07a55.933,55.933,0,0,1-107.7,21.18l-21.48-52.51L377.85,352,384,367.04V264a24.006,24.006,0,0,1,24-24h40l24-8,4.44-8.87A12.877,12.877,0,0,1,487.97,216Z"/><circle cx="208.715" cy="211.862" r="10.915" fill="#ffb3d0"/><path fill="#ffb3d0" d="M244,200v22a18,18,0,0,1-18,18h0a18,18,0,0,1-18-18v-5.226h0a34.722,34.722,0,0,0,21.383-23.337l.395-1.437H236A8,8,0,0,1,244,200Z"/><path fill="#154dfc" d="M504,20H8a4,4,0,0,0-4,4V128a4,4,0,0,0,4,4H504a4,4,0,0,0,4-4V24A4,4,0,0,0,504,20Zm-4,104H12V28H500Z"/><path fill="#154dfc" d="M39.7,87.736,35.336,113.19a4,4,0,0,0,5.8,4.217L64,105.389l22.86,12.018a4,4,0,0,0,5.8-4.217L88.3,87.736l18.494-18.028a4,4,0,0,0-2.217-6.823L79.017,59.171,67.587,36.012a4,4,0,0,0-7.174,0L48.983,59.171,23.425,62.885a4,4,0,0,0-2.217,6.823Zm12.513-20.95A4,4,0,0,0,55.227,64.6L64,46.821,72.773,64.6a4,4,0,0,0,3.012,2.188L95.4,69.637l-14.2,13.838a4,4,0,0,0-1.15,3.541l3.351,19.539L65.861,97.33a3.994,3.994,0,0,0-3.722,0l-17.548,9.225,3.351-19.539a4,4,0,0,0-1.15-3.541L32.6,69.637Z"/><path fill="#154dfc" d="M135.7,87.736l-4.366,25.454a4,4,0,0,0,5.8,4.217L160,105.389l22.86,12.018a4,4,0,0,0,5.8-4.217L184.3,87.736l18.494-18.028a4,4,0,0,0-2.217-6.823l-25.558-3.714-11.43-23.159a4,4,0,0,0-7.174,0l-11.43,23.159-25.558,3.714a4,4,0,0,0-2.217,6.823Zm12.513-20.95a4,4,0,0,0,3.012-2.188L160,46.821,168.773,64.6a4,4,0,0,0,3.012,2.188L191.4,69.637l-14.2,13.838a4,4,0,0,0-1.15,3.541l3.351,19.539L161.861,97.33a3.994,3.994,0,0,0-3.722,0l-17.548,9.225,3.351-19.539a4,4,0,0,0-1.15-3.541L128.6,69.637Z"/><path fill="#154dfc" d="M231.7,87.736l-4.366,25.454a4,4,0,0,0,5.8,4.217L256,105.389l22.86,12.018a4,4,0,0,0,5.8-4.217L280.3,87.736l18.494-18.028a4,4,0,0,0-2.217-6.823l-25.558-3.714-11.43-23.159a4,4,0,0,0-7.174,0l-11.43,23.159-25.558,3.714a4,4,0,0,0-2.217,6.823Zm12.513-20.95a4,4,0,0,0,3.012-2.188L256,46.821,264.773,64.6a4,4,0,0,0,3.012,2.188L287.4,69.637l-14.2,13.838a4,4,0,0,0-1.15,3.541l3.351,19.539L257.861,97.33a3.994,3.994,0,0,0-3.722,0l-17.548,9.225,3.351-19.539a4,4,0,0,0-1.15-3.541L224.6,69.637Z"/><path fill="#154dfc" d="M327.7,87.736l-4.366,25.454a4,4,0,0,0,5.8,4.217L352,105.389l22.86,12.018a4,4,0,0,0,5.8-4.217L376.3,87.736l18.494-18.028a4,4,0,0,0-2.217-6.823l-25.558-3.714-11.43-23.159a4,4,0,0,0-7.174,0l-11.43,23.159-25.558,3.714a4,4,0,0,0-2.217,6.823Zm12.513-20.95a4,4,0,0,0,3.012-2.188L352,46.821,360.773,64.6a4,4,0,0,0,3.012,2.188L383.4,69.637l-14.2,13.838a4,4,0,0,0-1.15,3.541l3.351,19.539L353.861,97.33a3.994,3.994,0,0,0-3.722,0l-17.548,9.225,3.351-19.539a4,4,0,0,0-1.15-3.541L320.6,69.637Z"/><path fill="#154dfc" d="M423.7,87.736l-4.366,25.454a4,4,0,0,0,5.8,4.217L448,105.389l22.86,12.018a4,4,0,0,0,5.8-4.217L472.3,87.736l18.494-18.028a4,4,0,0,0-2.217-6.823l-25.558-3.714-11.43-23.159a4,4,0,0,0-7.174,0l-11.43,23.159-25.558,3.714a4,4,0,0,0-2.217,6.823Zm12.513-20.95a4,4,0,0,0,3.012-2.188L448,46.821,456.773,64.6a4,4,0,0,0,3.012,2.188L479.4,69.637l-14.2,13.838a4,4,0,0,0-1.15,3.541l3.351,19.539L449.861,97.33a3.994,3.994,0,0,0-3.722,0l-17.548,9.225,3.351-19.539a4,4,0,0,0-1.15-3.541L416.6,69.637Z"/><path fill="#154dfc" d="M467.805,171.826a4,4,0,0,0-3.23-2.723l-25.558-3.714-11.43-23.159a4,4,0,0,0-7.174,0l-11.43,23.159L383.425,169.1a4,4,0,0,0-2.217,6.823L399.7,193.953l-4.366,25.455a4,4,0,0,0,5.8,4.217L424,211.607l22.86,12.018a4,4,0,0,0,5.8-4.217L448.3,193.953l18.494-18.027A4,4,0,0,0,467.805,171.826Zm-26.6,17.866a4,4,0,0,0-1.15,3.541l3.351,19.539-17.548-9.225a4,4,0,0,0-3.722,0l-17.548,9.225,3.351-19.539a4,4,0,0,0-1.15-3.541l-14.2-13.838L412.215,173a4,4,0,0,0,3.012-2.189L424,153.039l8.773,17.776A4,4,0,0,0,435.785,173l19.619,2.85Z"/><path fill="#154dfc" d="M108.36,252a36.02,36.02,0,0,0-33.829,23.693l-48.46,133.27A44,44,0,0,0,67.42,468H100v20a4,4,0,0,0,8,0V468H267.73a12.159,12.159,0,0,0,12.243-11.213,11.922,11.922,0,0,0-1.545-6.734,11.91,11.91,0,0,0,4-16A11.909,11.909,0,0,0,284.942,416a11.9,11.9,0,0,0,3.031-8.784A12.16,12.16,0,0,0,275.73,396H258.29a19.768,19.768,0,0,0-27.389-5.408L222.789,396H107.4l34.8-95.693a4,4,0,1,0-7.517-2.734l-27.125,74.591L54.9,353.1l27.151-74.667A28.014,28.014,0,0,1,108.36,260H204a16,16,0,1,0,32,0h75.719c.084.006.169.009.254.01a35.888,35.888,0,0,1,33.065,22.365l27.6,67.469-51.629,21.639L316,359.213V296a4,4,0,0,0-8,0V488a4,4,0,0,0,8,0V380.362l20.6,50.4A59.932,59.932,0,0,0,452,408.07V266.708L483.783,254a16.058,16.058,0,0,0,9.588-10.975l6.51-26.05A4,4,0,0,0,496,212h-8.03a16.788,16.788,0,0,0-15.107,9.339l-3.7,7.39L447.351,236H408a28.032,28.032,0,0,0-28,28v82.7l-27.557-67.353a43.867,43.867,0,0,0-40.12-27.334c-.106-.009-.215-.013-.323-.013H236v-8h44a4,4,0,0,0,4-4v-6.4a34.95,34.95,0,0,0-13.561-27.54l-6.463-4.973A10.241,10.241,0,0,1,260,193.01a37.025,37.025,0,0,0-18.206-31.874A36.862,36.862,0,0,0,222.99,156h-1.22a39.566,39.566,0,0,0-38.392,29.974,27.769,27.769,0,0,1-13.036,17.291l-1.889,1.089A40.967,40.967,0,0,0,148,239.76V240a4,4,0,0,0,4,4h52v8Zm-3.537,127.683-6.891,18.95A4,4,0,0,0,101.69,404H224a4,4,0,0,0,2.219-.672l9.12-6.079a11.767,11.767,0,0,1,17.085,4.543A4,4,0,0,0,256,404h19.73a4.2,4.2,0,0,1,4.258,3.727A4,4,0,0,1,276,412H264.25a4,4,0,0,0,0,8H276a4,4,0,0,1,3.988,4.276A4.2,4.2,0,0,1,275.73,428H260.25a4,4,0,0,0,0,8H272a4,4,0,0,1,3.988,4.276A4.2,4.2,0,0,1,271.73,444H268c-.043,0-.083.011-.125.013s-.082-.013-.125-.013H256a4,4,0,0,0,0,8h11.75c.043,0,.083-.011.125-.013s.082.013.125.013a4,4,0,0,1,3.988,4.276A4.2,4.2,0,0,1,267.73,460H67.42a36,36,0,0,1-33.831-48.3l18.575-51.083ZM380.3,368.555a4,4,0,0,0,7.7-1.515V264a20.023,20.023,0,0,1,20-20h40a4,4,0,0,0,1.265-.205l24-8a4,4,0,0,0,2.312-2l4.443-8.876A8.831,8.831,0,0,1,487.97,220h2.907l-5.266,21.074a8.038,8.038,0,0,1-4.8,5.492l-34.3,13.72A4,4,0,0,0,444,264V408.07a51.933,51.933,0,0,1-100,19.667l-19.962-48.848,51.631-21.641ZM228,260a8,8,0,0,1-16,0V222.76a4,4,0,0,0-3.741-3.992,6.917,6.917,0,1,1,7.245-8.233,4,4,0,0,0,6.637,2.176A38.7,38.7,0,0,0,232.791,196H236a4,4,0,0,1,4,4v22a14.023,14.023,0,0,1-9.258,13.172q-.081.027-.162.057A13.82,13.82,0,0,1,226,236a4,4,0,0,0,0,8q1.006,0,2-.09Zm-71.783-24a32.958,32.958,0,0,1,16.231-24.715l1.894-1.092a35.775,35.775,0,0,0,16.8-22.279A31.593,31.593,0,0,1,221.77,164h1.22a28.887,28.887,0,0,1,14.741,4.027A29.025,29.025,0,0,1,252,193.01a18.288,18.288,0,0,0,7.1,14.42l6.462,4.971A26.906,26.906,0,0,1,276,233.6V236H242.959A22,22,0,0,0,248,222V200a12.013,12.013,0,0,0-12-12h-6.22a4,4,0,0,0-3.853,2.928l-.4,1.449a30.775,30.775,0,0,1-5.056,10.307A14.915,14.915,0,1,0,204,226.019V236Z"/></g></svg>